# xmcd CD database file
#
# Track frame offsets:
#	150
#	10932
#	27447
#	51555
#	64222
#	79395
#	100407
#	112952
#	135635
#	152672
#	175710
#	178512
#	213187
#	230740
#	246620
#
# Disc length: 3550 seconds
#
# Revision: 18
# Processed by: cddbd v1.5.2PL0 Copyright (c) Steve Scherf et al.
# Submitted via: CDex 1.77
#
DISCID=d30ddc0f
DTITLE=Stevie Ray Vaughan and Double Trouble - Texas Flood
DYEAR=1999
DGENRE=Blues
TTITLE0=Love Struck Baby
TTITLE1=Pride And Joy
TTITLE2=Texas Flood
TTITLE3=Tell Me
TTITLE4=Testify
TTITLE5=Rude Mood
TTITLE6=Mary Had A Little Lamb
TTITLE7=Dirty Pool
TTITLE8=I'm Cryin'
TTITLE9=Lenny
TTITLE10=SRV Speaks
TTITLE11=Tin Pan Alley (aka Roughest Place In Town)
TTITLE12=Testify (Live)
TTITLE13=Mary Had A Little Lamb (Live)
TTITLE14=Wham! (Live)
EXTD=Recorded at Down Town Studio, Los Angeles, California, USA and Riverside Sound, Austin, Texas, US YEAR: 1999
EXTT0=
EXTT1=
EXTT2=
EXTT3=
EXTT4=
EXTT5=
EXTT6=
EXTT7=
EXTT8=
EXTT9=
EXTT10=
EXTT11=
EXTT12=
EXTT13=
EXTT14=
PLAYORDER=
